<svg width="64" height="64" viewBox="0 0 64 64" fill="none" xmlns="http://www.w3.org/2000/svg">
<g id="circle-information">
<g id="Icon">
<path d="M32.0002 10.6667C20.2181 10.6667 10.6668 20.2179 10.6668 32C10.6668 43.7821 20.2181 53.3333 32.0002 53.3333C43.7822 53.3333 53.3335 43.7821 53.3335 32C53.3335 20.2179 43.7822 10.6667 32.0002 10.6667ZM5.3335 32C5.3335 17.2724 17.2726 5.33333 32.0002 5.33333C46.7278 5.33333 58.6668 17.2724 58.6668 32C58.6668 46.7276 46.7278 58.6667 32.0002 58.6667C17.2726 58.6667 5.3335 46.7276 5.3335 32Z" fill="#C0430D"/>
<path d="M32.0002 26.6667C33.4729 26.6667 34.6668 27.8606 34.6668 29.3333V45.3333C34.6668 46.8061 33.4729 48 32.0002 48C30.5274 48 29.3335 46.8061 29.3335 45.3333V29.3333C29.3335 27.8606 30.5274 26.6667 32.0002 26.6667Z" fill="#C0430D"/>
<path d="M36.0002 20C36.0002 22.2091 34.2093 24 32.0002 24C29.791 24 28.0002 22.2091 28.0002 20C28.0002 17.7909 29.791 16 32.0002 16C34.2093 16 36.0002 17.7909 36.0002 20Z" fill="#C0430D"/>
</g>
</g>
</svg>
